<?xml version="1.0" encoding="UTF-8"?>
<svg xmlns="http://www.w3.org/2000/svg" xmlns:xlink="http://www.w3.org/1999/xlink" width="24px" height="24px" viewBox="0 0 24 24" version="1.1">
<g id="surface1">
<path style=" stroke:none;fill-rule:nonzero;fill:rgb(0%,0%,0%);fill-opacity:1;" d="M 9.023438 0.328125 C 10.015625 1.003906 10.554688 2.09375 10.796875 3.246094 C 10.976562 4.214844 10.96875 5.335938 10.6875 6.28125 C 10.671875 6.332031 10.671875 6.332031 10.65625 6.386719 C 10.378906 7.328125 9.878906 8.113281 9.09375 8.71875 C 9.0625 8.734375 9.03125 8.75 9 8.765625 C 9 8.796875 9 8.824219 9 8.855469 C 9 10.644531 8.996094 12.433594 8.992188 14.222656 C 8.992188 14.4375 8.992188 14.652344 8.992188 14.867188 C 8.992188 14.910156 8.992188 14.953125 8.992188 14.996094 C 8.992188 15.691406 8.992188 16.382812 8.992188 17.074219 C 8.992188 17.785156 8.988281 18.496094 8.988281 19.207031 C 8.988281 19.644531 8.984375 20.082031 8.988281 20.519531 C 8.988281 20.820312 8.988281 21.121094 8.984375 21.421875 C 8.984375 21.597656 8.984375 21.769531 8.984375 21.945312 C 8.984375 22.132812 8.984375 22.320312 8.984375 22.507812 C 8.984375 22.5625 8.984375 22.617188 8.984375 22.671875 C 8.980469 23.074219 8.882812 23.382812 8.625 23.691406 C 8.59375 23.714844 8.566406 23.742188 8.535156 23.765625 C 8.488281 23.804688 8.488281 23.804688 8.445312 23.84375 C 8.128906 24.042969 7.769531 24.039062 7.40625 24 C 7.101562 23.914062 6.898438 23.757812 6.714844 23.503906 C 6.523438 23.132812 6.496094 22.796875 6.5 22.382812 C 6.5 22.324219 6.5 22.265625 6.5 22.207031 C 6.5 22.046875 6.5 21.886719 6.503906 21.722656 C 6.503906 21.550781 6.503906 21.378906 6.503906 21.203125 C 6.503906 20.90625 6.503906 20.605469 6.507812 20.304688 C 6.507812 19.832031 6.507812 19.355469 6.507812 18.882812 C 6.507812 18.71875 6.507812 18.558594 6.507812 18.394531 C 6.507812 18.355469 6.507812 18.316406 6.507812 18.273438 C 6.507812 17.8125 6.511719 17.351562 6.511719 16.890625 C 6.511719 16.847656 6.511719 16.804688 6.511719 16.761719 C 6.511719 16.078125 6.515625 15.394531 6.515625 14.710938 C 6.519531 14.007812 6.519531 13.308594 6.519531 12.605469 C 6.519531 12.171875 6.519531 11.738281 6.523438 11.304688 C 6.527344 11.007812 6.527344 10.714844 6.523438 10.417969 C 6.523438 10.246094 6.523438 10.074219 6.527344 9.902344 C 6.527344 9.71875 6.527344 9.53125 6.527344 9.347656 C 6.527344 9.292969 6.527344 9.238281 6.53125 9.183594 C 6.523438 8.960938 6.519531 8.820312 6.363281 8.652344 C 6.246094 8.554688 6.125 8.472656 6 8.390625 C 5.039062 7.484375 4.628906 6.109375 4.582031 4.820312 C 4.550781 3.390625 4.855469 1.917969 5.859375 0.84375 C 5.894531 0.808594 5.929688 0.769531 5.964844 0.730469 C 6.796875 -0.0898438 8.011719 -0.257812 9.023438 0.328125 Z M 9.023438 0.328125 "/>
<path style=" stroke:none;fill-rule:nonzero;fill:rgb(0%,0%,0%);fill-opacity:1;" d="M 14.359375 0.171875 C 14.527344 0.320312 14.613281 0.453125 14.636719 0.675781 C 14.640625 0.816406 14.640625 0.957031 14.640625 1.097656 C 14.640625 1.179688 14.640625 1.179688 14.640625 1.261719 C 14.640625 1.4375 14.640625 1.613281 14.640625 1.789062 C 14.636719 1.914062 14.636719 2.035156 14.636719 2.15625 C 14.636719 2.445312 14.636719 2.734375 14.636719 3.027344 C 14.632812 3.355469 14.632812 3.683594 14.632812 4.015625 C 14.628906 4.691406 14.628906 5.371094 14.625 6.046875 C 14.933594 6.046875 15.242188 6.046875 15.5625 6.046875 C 15.5625 5.914062 15.5625 5.78125 15.5625 5.648438 C 15.5625 5.207031 15.558594 4.765625 15.558594 4.324219 C 15.558594 4.058594 15.558594 3.789062 15.558594 3.523438 C 15.558594 3.265625 15.558594 3.007812 15.558594 2.75 C 15.558594 2.652344 15.558594 2.554688 15.558594 2.457031 C 15.558594 2.136719 15.558594 1.820312 15.5625 1.5 C 15.5625 1.449219 15.5625 1.402344 15.5625 1.351562 C 15.566406 1.203125 15.566406 1.054688 15.570312 0.90625 C 15.570312 0.863281 15.570312 0.816406 15.574219 0.769531 C 15.578125 0.554688 15.585938 0.453125 15.71875 0.28125 C 15.933594 0.121094 16.117188 0.03125 16.386719 0.0507812 C 16.628906 0.0898438 16.800781 0.183594 16.953125 0.382812 C 17.035156 0.554688 17.035156 0.707031 17.035156 0.894531 C 17.035156 0.949219 17.035156 0.949219 17.039062 1.007812 C 17.039062 1.132812 17.039062 1.253906 17.039062 1.378906 C 17.039062 1.46875 17.042969 1.554688 17.042969 1.640625 C 17.042969 1.875 17.046875 2.105469 17.046875 2.335938 C 17.046875 2.566406 17.050781 2.796875 17.050781 3.027344 C 17.0625 4.035156 17.066406 5.039062 17.0625 6.046875 C 17.371094 6.046875 17.679688 6.046875 18 6.046875 C 18 5.976562 18 5.910156 18 5.835938 C 17.992188 5.183594 17.988281 4.535156 17.984375 3.882812 C 17.984375 3.546875 17.980469 3.210938 17.980469 2.875 C 17.976562 2.585938 17.972656 2.292969 17.972656 2 C 17.972656 1.84375 17.972656 1.691406 17.96875 1.535156 C 17.96875 1.363281 17.96875 1.191406 17.96875 1.019531 C 17.96875 0.96875 17.964844 0.917969 17.964844 0.863281 C 17.96875 0.574219 18.003906 0.410156 18.207031 0.199219 C 18.390625 0.0507812 18.566406 0.0390625 18.792969 0.046875 C 19.046875 0.078125 19.195312 0.1875 19.359375 0.375 C 19.421875 0.5 19.414062 0.59375 19.414062 0.734375 C 19.414062 0.820312 19.414062 0.820312 19.414062 0.90625 C 19.414062 0.96875 19.414062 1.03125 19.414062 1.09375 C 19.414062 1.160156 19.414062 1.226562 19.414062 1.292969 C 19.417969 1.507812 19.417969 1.726562 19.417969 1.941406 C 19.417969 2.019531 19.417969 2.09375 19.417969 2.167969 C 19.417969 2.519531 19.417969 2.871094 19.421875 3.226562 C 19.421875 3.628906 19.421875 4.035156 19.421875 4.441406 C 19.425781 4.753906 19.425781 5.070312 19.425781 5.382812 C 19.425781 5.570312 19.425781 5.757812 19.425781 5.945312 C 19.429688 6.121094 19.429688 6.296875 19.429688 6.476562 C 19.429688 6.570312 19.429688 6.664062 19.429688 6.757812 C 19.421875 7.902344 18.785156 8.757812 18.042969 9.558594 C 18.011719 9.59375 18.011719 9.59375 17.980469 9.628906 C 17.90625 9.703125 17.90625 9.703125 17.800781 9.789062 C 17.601562 9.96875 17.460938 10.101562 17.433594 10.378906 C 17.429688 10.472656 17.429688 10.570312 17.433594 10.664062 C 17.433594 10.714844 17.433594 10.769531 17.433594 10.824219 C 17.429688 11 17.433594 11.175781 17.4375 11.351562 C 17.4375 11.480469 17.4375 11.605469 17.433594 11.734375 C 17.433594 12.007812 17.4375 12.277344 17.4375 12.550781 C 17.441406 12.945312 17.441406 13.339844 17.441406 13.734375 C 17.441406 14.375 17.441406 15.015625 17.445312 15.660156 C 17.445312 15.695312 17.445312 15.734375 17.445312 15.773438 C 17.445312 15.851562 17.445312 15.929688 17.445312 16.007812 C 17.445312 16.066406 17.445312 16.066406 17.449219 16.125 C 17.449219 16.164062 17.449219 16.199219 17.449219 16.242188 C 17.449219 16.667969 17.449219 17.09375 17.453125 17.523438 C 17.453125 17.582031 17.453125 17.582031 17.453125 17.640625 C 17.453125 18.277344 17.453125 18.917969 17.453125 19.554688 C 17.457031 19.949219 17.457031 20.34375 17.457031 20.734375 C 17.460938 21.003906 17.460938 21.273438 17.460938 21.542969 C 17.460938 21.699219 17.460938 21.855469 17.464844 22.011719 C 17.464844 22.179688 17.464844 22.347656 17.464844 22.519531 C 17.464844 22.566406 17.464844 22.613281 17.46875 22.664062 C 17.464844 23.035156 17.371094 23.339844 17.125 23.621094 C 16.890625 23.847656 16.609375 23.9375 16.289062 23.96875 C 15.941406 23.933594 15.667969 23.835938 15.421875 23.578125 C 15.152344 23.179688 15.132812 22.828125 15.136719 22.359375 C 15.136719 22.28125 15.136719 22.28125 15.136719 22.199219 C 15.136719 22.027344 15.136719 21.851562 15.140625 21.675781 C 15.140625 21.550781 15.140625 21.425781 15.140625 21.300781 C 15.140625 21.097656 15.140625 20.898438 15.140625 20.699219 C 15.144531 20.203125 15.144531 19.707031 15.144531 19.207031 C 15.144531 19.171875 15.144531 19.136719 15.144531 19.097656 C 15.144531 18.804688 15.144531 18.507812 15.144531 18.210938 C 15.144531 17.945312 15.144531 17.679688 15.144531 17.414062 C 15.144531 17.375 15.144531 17.335938 15.144531 17.296875 C 15.144531 16.679688 15.148438 16.066406 15.152344 15.449219 C 15.152344 14.816406 15.152344 14.1875 15.152344 13.554688 C 15.152344 13.164062 15.152344 12.773438 15.15625 12.382812 C 15.15625 12.117188 15.15625 11.851562 15.15625 11.582031 C 15.15625 11.429688 15.15625 11.273438 15.160156 11.121094 C 15.199219 10.480469 15.199219 10.480469 14.980469 9.90625 C 14.851562 9.789062 14.726562 9.699219 14.578125 9.609375 C 14.460938 9.492188 14.355469 9.363281 14.25 9.234375 C 14.195312 9.167969 14.195312 9.167969 14.140625 9.097656 C 13.457031 8.25 13.164062 7.453125 13.164062 6.355469 C 13.164062 6.292969 13.164062 6.234375 13.164062 6.167969 C 13.164062 6 13.164062 5.832031 13.164062 5.664062 C 13.164062 5.558594 13.164062 5.453125 13.160156 5.347656 C 13.160156 5.019531 13.160156 4.691406 13.160156 4.359375 C 13.160156 3.980469 13.160156 3.601562 13.160156 3.222656 C 13.15625 2.925781 13.15625 2.632812 13.15625 2.339844 C 13.15625 2.164062 13.15625 1.988281 13.15625 1.8125 C 13.15625 1.617188 13.15625 1.421875 13.15625 1.226562 C 13.15625 1.167969 13.15625 1.109375 13.152344 1.050781 C 13.15625 0.757812 13.164062 0.535156 13.3125 0.28125 C 13.644531 0.015625 13.980469 -0.015625 14.359375 0.171875 Z M 14.359375 0.171875 "/>
</g>
</svg>
